REM MD5 7fcb1fdfd6829feb3a5264bf26371c8f
FILE "Oddworld - Abe's Exoddus + Duke Nukem - Time To Kill + B-Movie (Europe) (Demo).bin" BINARY
  TRACK 01 MODE2/2352
    INDEX 01 00:00:00
  TRACK 02 AUDIO
    INDEX 00 16:17:54
    INDEX 01 16:19:54
  TRACK 03 AUDIO
    INDEX 00 17:44:73
    INDEX 01 17:46:73
  TRACK 04 AUDIO
    INDEX 00 18:48:38
    INDEX 01 18:50:38
  TRACK 05 AUDIO
    INDEX 00 20:44:23
    INDEX 01 20:46:23
REM LEADOUT 23:47:23
